<?xml version="1.0" encoding="UTF-8" standalone="no"?>
<!-- Created with Inkscape (http://www.inkscape.org/) -->

<svg
   width="210mm"
   height="148mm"
   viewBox="0 0 210 148"
   version="1.1"
   id="svg1"
   xml:space="preserve"
   inkscape:version="1.4.3 (fcd0343856, 2026-01-01)"
   sodipodi:docname="design3.svg"
   xmlns:inkscape="http://www.inkscape.org/namespaces/inkscape"
   xmlns:sodipodi="http://sodipodi.sourceforge.net/DTD/sodipodi-0.dtd"
   xmlns="http://www.w3.org/2000/svg"
   xmlns:svg="http://www.w3.org/2000/svg"><sodipodi:namedview
     id="namedview1"
     pagecolor="#ffffff"
     bordercolor="#666666"
     borderopacity="1.0"
     inkscape:showpageshadow="2"
     inkscape:pageopacity="0.0"
     inkscape:pagecheckerboard="0"
     inkscape:deskcolor="#d1d1d1"
     inkscape:document-units="mm"
     inkscape:zoom="2"
     inkscape:cx="433.5"
     inkscape:cy="275"
     inkscape:window-width="2520"
     inkscape:window-height="1371"
     inkscape:window-x="1960"
     inkscape:window-y="32"
     inkscape:window-maximized="1"
     inkscape:current-layer="layer1"
     showguides="true" /><defs
     id="defs1" /><g
     inkscape:label="Layer 1"
     inkscape:groupmode="layer"
     id="layer1"><text
       xml:space="preserve"
       style="font-size:4px;line-height:1.25;font-family:sans-serif;letter-spacing:0px;word-spacing:0px;stroke-width:0.264583"
       x="75.784584"
       y="66.628746"
       id="text2"><tspan
         sodipodi:role="line"
         id="tspan2"
         style="font-size:4px;stroke-width:0.264583"
         x="75.784584"
         y="66.628746">H: 15°C</tspan><tspan
         sodipodi:role="line"
         style="font-size:4px;stroke-width:0.264583"
         x="75.784584"
         y="71.628746"
         id="tspan3">L:   4°C</tspan></text><g
       id="g15"
       transform="translate(81.686763,52.16564)"><text
         xml:space="preserve"
         style="font-size:9px;line-height:1.25;font-family:sans-serif;letter-spacing:0px;word-spacing:0px;stroke-width:0.25102"
         x="0.76125681"
         y="8.1598425"
         id="text1"
         transform="scale(1.054034,0.948736)"><tspan
           sodipodi:role="line"
           id="tspan1"
           style="font-size:9px;line-height:1.25;stroke-width:0.25102"
           x="0.76125681"
           y="8.1598425">15</tspan></text><text
         xml:space="preserve"
         style="font-size:3px;line-height:1.25;font-family:sans-serif;letter-spacing:0px;word-spacing:0px;stroke-width:0.264583"
         x="12.411897"
         y="3.6369877"
         id="text4"><tspan
           sodipodi:role="line"
           id="tspan4"
           style="font-size:3px;stroke-width:0.264583"
           x="12.411897"
           y="3.6369877"> 13</tspan></text><text
         xml:space="preserve"
         style="font-size:3px;line-height:1.25;font-family:sans-serif;letter-spacing:0px;word-spacing:0px;stroke-width:0.264583"
         x="12.956024"
         y="7.4526339"
         id="text4-3"><tspan
           sodipodi:role="line"
           id="tspan4-7"
           style="font-size:3px;stroke-width:0.264583"
           x="12.956024"
           y="7.4526339">°C</tspan></text></g><text
       xml:space="preserve"
       style="font-size:2px;line-height:1.25;font-family:sans-serif;letter-spacing:0px;word-spacing:0px;writing-mode:lr-tb;text-orientation:upright;stroke-width:0.264583"
       x="76.036469"
       y="75.927353"
       id="text6"><tspan
         sodipodi:role="line"
         style="font-size:2px;writing-mode:lr-tb;text-orientation:upright;stroke-width:0.264583"
         x="76.036469"
         y="75.927353"
         id="tspan32">14/04 18:25</tspan></text><rect
       style="opacity:0.583292;fill:none;stroke-width:0.1"
       id="rect15"
       width="48.268875"
       height="37.043556"
       x="34.237228"
       y="39.475708" /><rect
       style="opacity:0.583292;fill:none;stroke-width:0.1"
       id="rect16"
       width="44.901279"
       height="30.869631"
       x="26.005325"
       y="37.604824" /><rect
       style="opacity:0.583292;fill:none;fill-opacity:1;stroke:#000000;stroke-width:1;stroke-dasharray:none;stroke-opacity:1"
       id="rect17"
       width="49"
       height="26"
       x="74.461288"
       y="50.888119"
       sodipodi:insensitive="true" /><text
       xml:space="preserve"
       style="font-size:3px;line-height:1.25;font-family:sans-serif;letter-spacing:0px;word-spacing:0px;stroke-width:0.264583"
       x="31.277912"
       y="80.322876"
       id="text20"><tspan
         sodipodi:role="line"
         id="tspan20"
         style="font-size:3px;stroke-width:0.264583"
         x="31.277912"
         y="80.322876">Update date and time</tspan></text><text
       xml:space="preserve"
       style="font-size:3px;line-height:1.25;font-family:sans-serif;letter-spacing:0px;word-spacing:0px;stroke-width:0.264583"
       x="106.77089"
       y="85.688179"
       id="text20-09"><tspan
         sodipodi:role="line"
         id="tspan20-6"
         style="font-size:3px;stroke-width:0.264583"
         x="106.77089"
         y="85.688179">Current weather condition</tspan></text><text
       xml:space="preserve"
       style="font-size:3px;line-height:1.25;font-family:sans-serif;letter-spacing:0px;word-spacing:0px;stroke-width:0.264583"
       x="62.710091"
       y="43.157425"
       id="text20-0"><tspan
         sodipodi:role="line"
         id="tspan20-9"
         style="font-size:3px;stroke-width:0.264583"
         x="62.710091"
         y="43.157425">Current temperature</tspan></text><text
       xml:space="preserve"
       style="font-size:3px;line-height:1.25;font-family:sans-serif;letter-spacing:0px;word-spacing:0px;stroke-width:0.264583"
       x="101.69613"
       y="43.898438"
       id="text20-0-1"><tspan
         sodipodi:role="line"
         id="tspan20-9-5"
         style="font-size:3px;stroke-width:0.264583"
         x="101.69613"
         y="43.898438">Feel temperature</tspan></text><text
       xml:space="preserve"
       style="font-size:3px;line-height:1.25;font-family:sans-serif;letter-spacing:0px;word-spacing:0px;stroke-width:0.264583"
       x="13.728483"
       y="67.102211"
       id="text20-0-1-7"><tspan
         sodipodi:role="line"
         id="tspan20-9-5-3"
         style="font-size:3px;stroke-width:0.264583"
         x="13.728483"
         y="67.102211">Max temperature for current day</tspan></text><text
       xml:space="preserve"
       style="font-size:3px;line-height:1.25;font-family:sans-serif;letter-spacing:0px;word-spacing:0px;stroke-width:0.264583"
       x="13.860769"
       y="71.600128"
       id="text20-0-1-7-9"><tspan
         sodipodi:role="line"
         id="tspan20-9-5-3-4"
         style="font-size:3px;stroke-width:0.264583"
         x="13.860769"
         y="71.600128">Min temperature for current day</tspan></text><text
       xml:space="preserve"
       style="font-size:3px;line-height:1.25;font-family:sans-serif;letter-spacing:0px;word-spacing:0px;stroke-width:0.264583"
       x="126.97014"
       y="71.467834"
       id="text20-0-1-7-9-3"><tspan
         sodipodi:role="line"
         id="tspan20-9-5-3-4-9"
         style="font-size:3px;stroke-width:0.264583"
         x="126.97014"
         y="71.467834">12 hours weather prognose</tspan></text><path
       style="fill:none;stroke:#000000;stroke-width:0.201503px;stroke-linecap:butt;stroke-linejoin:miter;stroke-opacity:1"
       d="M 64.82604,79.116566 75.644538,75.668894"
       id="path20"
       sodipodi:nodetypes="cc" /><path
       style="fill:none;stroke:#000000;stroke-width:0.264583px;stroke-linecap:butt;stroke-linejoin:miter;stroke-opacity:1"
       d="M 80.301041,42.465625 87.709374,53.18125"
       id="path21"
       sodipodi:nodetypes="cc" /><path
       style="fill:none;stroke:#000000;stroke-width:0.264583px;stroke-linecap:butt;stroke-linejoin:miter;stroke-opacity:1"
       d="m 103.58437,46.037499 -5.688537,6.085417"
       id="path22"
       sodipodi:nodetypes="cc" /><path
       style="fill:none;stroke:#000000;stroke-width:0.264583px;stroke-linecap:butt;stroke-linejoin:miter;stroke-opacity:1"
       d="m 71.966665,65.352082 c -5.55625,0 -5.42396,0.264584 -5.42396,0.264584"
       id="path23" /><path
       style="fill:none;stroke:#000000;stroke-width:0.264583px;stroke-linecap:butt;stroke-linejoin:miter;stroke-opacity:1"
       d="m 72.495833,70.114583 c -6.61458,0.529166 -6.61458,0.529166 -6.61458,0.529166"
       id="path24" /><path
       style="fill:none;stroke:#000000;stroke-width:0.264583px;stroke-linecap:butt;stroke-linejoin:miter;stroke-opacity:1"
       d="m 102.61538,69.703017 10.62255,12.803086"
       id="path25"
       sodipodi:nodetypes="cc" /><g
       id="g32"
       transform="rotate(1.5334542,-601.49199,1304.6495)"
       inkscape:transform-center-x="-0.17892641"
       inkscape:transform-center-y="2.670263"><rect
         style="opacity:1;fill:#000000;fill-opacity:1;stroke:#000000;stroke-width:0.4;stroke-linecap:round;stroke-linejoin:miter;stroke-dasharray:none;stroke-opacity:1"
         id="rect31"
         width="2.0670574"
         height="1.2567708"
         x="56.005585"
         y="-62.029427"
         transform="rotate(89.551105)" /><rect
         style="opacity:1;fill:#000000;fill-opacity:1;stroke:#000000;stroke-width:0.4;stroke-linecap:round;stroke-linejoin:miter;stroke-dasharray:none;stroke-opacity:1"
         id="rect31-1"
         width="2.0670574"
         height="1.2567708"
         x="56.005585"
         y="-63.747658"
         transform="rotate(89.551105)" /><rect
         style="opacity:1;fill:none;fill-opacity:1;stroke:#000000;stroke-width:0.4;stroke-linecap:round;stroke-linejoin:miter;stroke-dasharray:none;stroke-opacity:1"
         id="rect31-4"
         width="2.0670574"
         height="1.2567708"
         x="56.005585"
         y="-65.467453"
         transform="rotate(89.551105)" /><rect
         style="opacity:1;fill:none;fill-opacity:1;stroke:#000000;stroke-width:0.4;stroke-linecap:round;stroke-linejoin:miter;stroke-dasharray:none;stroke-opacity:1"
         id="rect31-0"
         width="2.0670574"
         height="1.2567708"
         x="56.005585"
         y="-67.170708"
         transform="rotate(89.551105)" /></g><text
       xml:space="preserve"
       style="font-size:3px;line-height:1.25;font-family:sans-serif;letter-spacing:0px;word-spacing:0px;stroke-width:0.264583"
       x="82.441101"
       y="85.274124"
       id="text20-7"><tspan
         sodipodi:role="line"
         id="tspan20-63"
         style="font-size:3px;stroke-width:0.264583"
         x="82.441101"
         y="85.274124">Battery level</tspan></text><path
       style="fill:none;stroke:#000000;stroke-width:0.264583px;stroke-linecap:butt;stroke-linejoin:miter;stroke-opacity:1"
       d="M 94.853955,82.272242 94.1056,77.361164"
       id="path32"
       sodipodi:nodetypes="cc" /><g
       id="g47"
       transform="matrix(1,0,0,0.96243807,29.401823,-28.362624)"><text
         xml:space="preserve"
         style="font-size:3px;line-height:1.25;font-family:sans-serif;letter-spacing:0px;word-spacing:0px;stroke-width:0.264583"
         x="77.36116"
         y="85.686615"
         id="text33"><tspan
           sodipodi:role="line"
           id="tspan33"
           style="font-size:3px;stroke-width:0.264583"
           x="77.36116"
           y="85.686615">19   15</tspan><tspan
           sodipodi:role="line"
           style="font-size:3px;stroke-width:0.264583"
           x="77.36116"
           y="89.436615"
           id="tspan34">21   12</tspan><tspan
           sodipodi:role="line"
           style="font-size:3px;stroke-width:0.264583"
           x="77.36116"
           y="93.186615"
           id="tspan35">23     9</tspan><tspan
           sodipodi:role="line"
           style="font-size:3px;stroke-width:0.264583"
           x="77.36116"
           y="96.936615"
           id="tspan36">  1     8</tspan><tspan
           sodipodi:role="line"
           style="font-size:3px;stroke-width:0.264583"
           x="77.36116"
           y="100.68661"
           id="tspan37">  3     5</tspan><tspan
           sodipodi:role="line"
           style="font-size:3px;stroke-width:0.264583"
           x="77.36116"
           y="104.43661"
           id="tspan38">  5    -2</tspan><tspan
           sodipodi:role="line"
           style="font-size:3px;stroke-width:0.264583"
           x="77.36116"
           y="108.18661"
           id="tspan40">  7  -12</tspan><tspan
           sodipodi:role="line"
           style="font-size:3px;stroke-width:0.264583"
           x="77.36116"
           y="111.93661"
           id="tspan39" /></text><path
         d="m 90.330343,84.542113 c 0,-0.03175 0.01059,-0.05953 0.03307,-0.08202 0.02249,-0.02116 0.05027,-0.03175 0.07937,-0.03175 h 0.269875 c 0.03043,0 0.05556,0.01059 0.07673,0.03307 0.01985,0.02249 0.03043,0.04895 0.03043,0.0807 0,0.03175 -0.0093,0.05821 -0.02911,0.0807 -0.01985,0.02249 -0.0463,0.03307 -0.07673,0.03307 h -0.269875 c -0.03043,0 -0.05689,-0.01059 -0.07937,-0.03307 -0.02249,-0.02249 -0.0344,-0.04895 -0.0344,-0.0807 z m 0.378354,0.916781 c 0,-0.03042 0.01058,-0.05688 0.03042,-0.0807 l 0.194471,-0.189177 c 0.01984,-0.02116 0.0463,-0.03042 0.07805,-0.03042 0.03175,0 0.05821,0.01058 0.07937,0.03042 0.02116,0.01985 0.03175,0.04498 0.03175,0.07541 0,0.03175 -0.01059,0.06086 -0.03175,0.08467 l -0.187854,0.187854 c -0.05424,0.04234 -0.108479,0.04234 -0.162719,0 -0.02117,-0.02116 -0.03175,-0.04762 -0.03175,-0.07805 z m 0,-1.830917 c 0,-0.03042 0.01058,-0.05688 0.03042,-0.0807 0.02646,-0.02249 0.05424,-0.03307 0.08467,-0.03307 0.0291,0 0.05556,0.01059 0.07805,0.03175 l 0.189177,0.194468 c 0.02117,0.01985 0.03175,0.0463 0.03175,0.07805 0,0.03175 -0.01058,0.05821 -0.03175,0.07937 -0.02116,0.02117 -0.04762,0.03175 -0.07937,0.03175 -0.03175,0 -0.05821,-0.01059 -0.07805,-0.03175 l -0.193146,-0.189177 c -0.02116,-0.02116 -0.03175,-0.04895 -0.03175,-0.0807 z m 0.337344,0.914136 c 0,-0.123032 0.03042,-0.238125 0.0926,-0.343959 0.06218,-0.105833 0.145521,-0.1905 0.252677,-0.252677 0.107157,-0.06218 0.220927,-0.0926 0.343958,-0.0926 0.0926,0 0.18124,0.01852 0.26723,0.05556 0.08467,0.03704 0.15875,0.08599 0.219604,0.148167 0.06218,0.06218 0.111125,0.134937 0.146843,0.219604 0.03572,0.08467 0.05424,0.174625 0.05424,0.267228 0,0.124355 -0.03043,0.239449 -0.0926,0.345282 -0.06218,0.105834 -0.145521,0.189177 -0.251354,0.251354 -0.105834,0.06218 -0.220927,0.0926 -0.345281,0.0926 -0.124354,0 -0.239449,-0.03043 -0.345281,-0.0926 -0.105834,-0.06218 -0.189177,-0.145521 -0.251355,-0.251354 -0.05953,-0.107157 -0.09128,-0.22225 -0.09128,-0.346604 z m 0.224896,0 c 0,0.129646 0.04498,0.239447 0.13626,0.330729 0.08996,0.09128 0.19976,0.137584 0.329407,0.137584 0.129645,0 0.239447,-0.0463 0.330728,-0.137584 0.09128,-0.09128 0.137584,-0.201084 0.137584,-0.330729 0,-0.127 -0.0463,-0.235479 -0.137584,-0.32676 -0.09128,-0.08996 -0.201083,-0.134938 -0.330728,-0.134938 -0.128324,0 -0.238125,0.04498 -0.328084,0.134938 -0.0926,0.09128 -0.137583,0.19976 -0.137583,0.32676 z m 0.351895,1.029229 c 0,-0.03175 0.01058,-0.05821 0.03307,-0.07937 0.02249,-0.02116 0.04895,-0.03175 0.07937,-0.03175 0.03175,0 0.05953,0.01059 0.0807,0.03175 0.02116,0.02116 0.03175,0.04762 0.03175,0.07937 v 0.26326 c 0,0.03175 -0.01059,0.05953 -0.03307,0.08202 -0.02249,0.02249 -0.04895,0.03307 -0.07937,0.03307 -0.03043,0 -0.05821,-0.01058 -0.07937,-0.03307 -0.02249,-0.02249 -0.03308,-0.05027 -0.03308,-0.08202 z m 0,-2.050521 v -0.269875 c 0,-0.03042 0.01058,-0.05689 0.03307,-0.07937 0.02249,-0.02249 0.04895,-0.0344 0.0807,-0.0344 0.03175,0 0.05689,0.01059 0.07937,0.03308 0.02249,0.02249 0.03307,0.04895 0.03307,0.07937 v 0.271198 c 0,0.03042 -0.01058,0.05556 -0.03307,0.07673 -0.02249,0.02116 -0.04895,0.03042 -0.07937,0.03042 -0.03042,0 -0.05821,-0.01058 -0.07937,-0.03042 -0.02116,-0.01985 -0.0344,-0.0463 -0.0344,-0.07673 z m 0.73025,1.743604 c 0,-0.03042 0.01058,-0.05556 0.03042,-0.07408 0.01985,-0.02116 0.04498,-0.03042 0.07408,-0.03042 0.03175,0 0.05821,0.01058 0.07937,0.03042 l 0.193148,0.189177 c 0.02116,0.02249 0.03175,0.05027 0.03175,0.0807 0,0.03043 -0.01059,0.05689 -0.03175,0.07805 -0.05292,0.04101 -0.105834,0.04101 -0.15875,0 l -0.187854,-0.187854 c -0.01985,-0.02381 -0.03043,-0.05159 -0.03043,-0.08599 z m 0,-1.444625 c 0,-0.03307 0.01058,-0.05953 0.03042,-0.07805 l 0.187855,-0.194469 c 0.02249,-0.02116 0.04895,-0.03175 0.07805,-0.03175 0.03175,0 0.05821,0.01059 0.07937,0.03307 0.02249,0.02249 0.03308,0.04895 0.03308,0.07938 0,0.03307 -0.01059,0.06085 -0.03175,0.08202 l -0.193146,0.189177 c -0.02381,0.02116 -0.05027,0.03175 -0.07937,0.03175 -0.03043,0 -0.05424,-0.01058 -0.07408,-0.03175 -0.01985,-0.02117 -0.03043,-0.04763 -0.03043,-0.07937 z m 0.29898,0.722313 c 0,-0.03175 0.01058,-0.05821 0.03175,-0.08202 0.02116,-0.02116 0.0463,-0.03175 0.07541,-0.03175 h 0.267229 c 0.03042,0 0.05688,0.0119 0.07937,0.0344 0.02249,0.02249 0.03439,0.04895 0.03439,0.07937 0,0.03042 -0.0119,0.05689 -0.03439,0.07937 -0.02249,0.02249 -0.04895,0.03307 -0.07937,0.03307 h -0.267233 c -0.03043,0 -0.05689,-0.01058 -0.07673,-0.03307 -0.01985,-0.02249 -0.03043,-0.04762 -0.03043,-0.07937 z"
         id="path1"
         style="stroke-width:0.132291" /><path
         d="m 89.911622,88.802767 c 0,0.119062 0.02911,0.228864 0.08731,0.329406 0.05821,0.100542 0.137583,0.179917 0.238125,0.238125 0.100541,0.05821 0.20902,0.08731 0.32676,0.08731 h 1.432721 c 0.117736,0 0.227541,-0.02911 0.32808,-0.08731 0.100545,-0.05821 0.181243,-0.137583 0.239453,-0.238125 0.0582,-0.100542 0.0886,-0.210344 0.0886,-0.329406 0,-0.08731 -0.0185,-0.175948 -0.0556,-0.264584 0.10055,-0.121708 0.15082,-0.268552 0.15082,-0.436562 0,-0.09393 -0.0185,-0.183886 -0.0542,-0.269875 -0.0357,-0.08599 -0.086,-0.15875 -0.14817,-0.220927 -0.0622,-0.06218 -0.134943,-0.112448 -0.220933,-0.148167 -0.08599,-0.03704 -0.175945,-0.05424 -0.269875,-0.05424 -0.19579,0 -0.366445,0.07673 -0.51329,0.230188 -0.101865,-0.05821 -0.22093,-0.08731 -0.357188,-0.08731 -0.186532,0 -0.350573,0.05821 -0.493448,0.173302 -0.142875,0.115094 -0.235479,0.263261 -0.275167,0.443177 -0.148167,0.03439 -0.268552,0.109803 -0.362479,0.228865 -0.09393,0.119063 -0.141552,0.254 -0.141552,0.406136 z m 0.226219,0 c 0,-0.111126 0.03704,-0.206376 0.111125,-0.287073 0.07408,-0.0807 0.166688,-0.127 0.277812,-0.140229 l 0.06615,-0.004 c 0.01587,0 0.02513,-0.0079 0.02513,-0.02382 l 0.0093,-0.07144 c 0.01852,-0.142874 0.0807,-0.263259 0.186531,-0.358509 0.105833,-0.09657 0.230188,-0.144198 0.37174,-0.144198 0.145521,0 0.272521,0.04895 0.379676,0.145521 0.10848,0.09657 0.168011,0.215635 0.18124,0.358511 l 0.0093,0.07673 c 0.0025,0.01455 0.0119,0.02249 0.0278,0.02249 h 0.21299 c 0.116416,0 0.21696,0.04234 0.301625,0.127 0.08467,0.08467 0.127,0.183885 0.127,0.300302 0,0.120385 -0.04235,0.22225 -0.125675,0.306916 -0.08334,0.08467 -0.185209,0.127 -0.301625,0.127 h -1.434044 c -0.116416,0 -0.215635,-0.04233 -0.300302,-0.128322 -0.08334,-0.08599 -0.125677,-0.187855 -0.125677,-0.306917 z m 0.886354,-1.623219 c 0,0.03175 0.01059,0.05953 0.03175,0.08334 l 0.08731,0.08467 c 0.03307,0.02514 0.06086,0.03572 0.08467,0.03307 0.0278,0 0.05159,-0.0119 0.07276,-0.03439 0.02115,-0.02249 0.03175,-0.05027 0.03175,-0.08202 0,-0.03175 -0.0119,-0.05821 -0.0344,-0.07805 l -0.07806,-0.08731 c -0.0238,-0.02117 -0.05027,-0.03175 -0.0807,-0.03175 -0.03175,0 -0.05953,0.01058 -0.08202,0.03307 -0.02249,0.02116 -0.03307,0.04762 -0.03307,0.07937 z m 0.706437,0.586052 c 0.09128,-0.08863 0.19976,-0.132291 0.324114,-0.132291 0.130971,0 0.242095,0.04498 0.333376,0.13626 0.09128,0.09128 0.137589,0.201083 0.137589,0.332052 0,0.08202 -0.0225,0.164042 -0.06748,0.243417 -0.12832,-0.127001 -0.28178,-0.190501 -0.461695,-0.190501 h -0.04235 C 91.921136,88.01034 91.847031,87.880694 91.730612,87.7656 Z m 0.215634,-0.6985 c 0,0.0344 0.0106,0.06085 0.03045,0.08202 0.01985,0.02116 0.0463,0.03042 0.07806,0.03042 0.0344,0 0.06085,-0.01058 0.08202,-0.03042 0.02115,-0.02116 0.03045,-0.04762 0.03045,-0.08202 v -0.271198 c 0,-0.03175 -0.0106,-0.05689 -0.03175,-0.07805 -0.02115,-0.02117 -0.0476,-0.03043 -0.0807,-0.03043 -0.03175,0 -0.05688,0.01059 -0.07805,0.03043 -0.02115,0.01984 -0.03045,0.0463 -0.03045,0.07805 z m 0.730255,0.302948 c 0,0.0344 0.009,0.06085 0.0291,0.08202 0.0278,0.02116 0.0556,0.03175 0.082,0.03175 0.0238,0 0.0503,-0.01059 0.0781,-0.03175 l 0.18918,-0.189178 c 0.0212,-0.02381 0.0318,-0.05159 0.0318,-0.08467 0,-0.03175 -0.0106,-0.05821 -0.0318,-0.07937 -0.0211,-0.02117 -0.0476,-0.03175 -0.078,-0.03175 -0.0318,0 -0.0569,0.01058 -0.0767,0.03175 l -0.19447,0.189177 c -0.0199,0.02513 -0.0291,0.05159 -0.0291,0.08202 z m 0.10451,1.566333 c 0,0.03175 0.0106,0.05953 0.033,0.08334 l 0.086,0.08334 c 0.0198,0.02117 0.045,0.03175 0.0767,0.03175 0.0318,0 0.0582,-0.01058 0.0794,-0.03307 0.0212,-0.02249 0.0318,-0.04895 0.0318,-0.08202 0,-0.02911 -0.0106,-0.05556 -0.0318,-0.07673 l -0.086,-0.08599 c -0.0212,-0.02116 -0.0463,-0.03175 -0.0754,-0.03175 -0.0318,0 -0.0582,0.01059 -0.0794,0.03175 -0.0225,0.02116 -0.0344,0.04762 -0.0344,0.07937 z m 0.19447,-0.83476 c 0,0.03042 0.0119,0.05556 0.0344,0.07673 0.0211,0.02116 0.0489,0.03175 0.0807,0.03175 h 0.26987 c 0.0305,0 0.0556,-0.01059 0.0767,-0.03043 0.0212,-0.01984 0.0305,-0.0463 0.0305,-0.07805 0,-0.03175 -0.0106,-0.05821 -0.0305,-0.07937 -0.0198,-0.02116 -0.0463,-0.03307 -0.0767,-0.03307 h -0.26987 c -0.0318,0 -0.0582,0.01059 -0.0807,0.03307 -0.0238,0.02249 -0.0344,0.04895 -0.0344,0.07937 z"
         id="path1-0"
         style="stroke-width:0.132291" /><path
         d="m 90.107696,92.178188 c 0,0.175949 0.0622,0.328084 0.18521,0.455084 0.12303,0.127 0.27384,0.194469 0.44979,0.202406 0.0159,0 0.0238,-0.0079 0.0238,-0.02249 v -0.177271 c 0,-0.01455 -0.008,-0.02249 -0.0238,-0.02249 -0.11377,-0.0066 -0.21034,-0.0516 -0.28972,-0.136261 -0.0794,-0.08467 -0.11906,-0.183886 -0.11906,-0.29898 0,-0.109802 0.0371,-0.205051 0.11245,-0.287072 0.0754,-0.08202 0.16801,-0.128323 0.27781,-0.141552 l 0.0701,-0.0053 c 0.0172,0 0.0265,-0.0079 0.0265,-0.02249 l 0.009,-0.07144 c 0.0146,-0.142875 0.0754,-0.26326 0.18257,-0.359834 0.10715,-0.09657 0.23415,-0.14552 0.37835,-0.14552 0.1442,0 0.26988,0.04895 0.37836,0.14552 0.10848,0.09657 0.16933,0.216959 0.1852,0.359834 l 0.0106,0.07541 c 0,0.01588 0.008,0.02381 0.0225,0.02381 h 0.21432 c 0.11774,0 0.22092,0.04233 0.30691,0.127 0.086,0.08467 0.12964,0.185209 0.12964,0.301625 0,0.115094 -0.0397,0.214313 -0.11905,0.29898 -0.0794,0.08467 -0.17595,0.129645 -0.28973,0.13626 -0.0185,0 -0.0278,0.0079 -0.0278,0.02249 v 0.17727 c 0,0.01455 0.009,0.02249 0.0278,0.02249 0.17596,-0.0053 0.32545,-0.07276 0.44715,-0.19976 0.12304,-0.128322 0.18388,-0.280458 0.18388,-0.456406 0,-0.116417 -0.0305,-0.224896 -0.09,-0.325438 0.10715,-0.09657 0.17594,-0.211666 0.20902,-0.346603 l 0.0185,-0.09525 c 0.001,-0.0014 0.002,-0.004 0.002,-0.0093 0,-0.0093 -0.007,-0.0172 -0.0212,-0.02116 l -0.0741,-0.02381 c -0.0754,-0.02117 -0.14023,-0.05821 -0.19314,-0.109802 -0.0542,-0.0516 -0.0926,-0.105834 -0.11509,-0.16272 -0.0225,-0.05688 -0.0344,-0.113771 -0.0344,-0.169333 -0.002,-0.02911 0.002,-0.06615 0.0106,-0.108479 l 0.0185,-0.0807 c 0.005,-0.01323 0,-0.02381 -0.0185,-0.03175 l -0.10451,-0.03175 c -0.0595,-0.01323 -0.1151,-0.01985 -0.16802,-0.01985 -0.0503,0 -0.10054,0.0053 -0.1508,0.0172 -0.0516,0.0119 -0.10451,0.02911 -0.15875,0.05424 -0.0542,0.02382 -0.10717,0.05953 -0.15875,0.105833 -0.0516,0.0463 -0.0953,0.09922 -0.1323,0.161397 -0.10847,-0.03969 -0.21166,-0.05953 -0.30824,-0.05953 -0.18653,0 -0.35321,0.05821 -0.49741,0.174626 -0.1442,0.116416 -0.23813,0.264582 -0.27914,0.445822 -0.14684,0.0344 -0.26723,0.109802 -0.36248,0.228865 -0.0979,0.117739 -0.14552,0.254 -0.14552,0.406135 z m 0.73554,0.904875 c 0,0.02249 0.007,0.04366 0.0212,0.06482 0.0145,0.02116 0.0357,0.03572 0.0648,0.04366 0.0305,0.0093 0.0595,0.0066 0.0847,-0.0053 0.0264,-0.01323 0.0436,-0.03704 0.0529,-0.07408 l 0.18918,-0.776552 c 0.008,-0.03307 0.004,-0.0635 -0.0106,-0.08863 -0.0159,-0.02646 -0.0383,-0.04233 -0.0688,-0.04895 -0.0291,-0.0093 -0.0569,-0.0066 -0.0834,0.0093 -0.0264,0.01455 -0.045,0.03704 -0.0542,0.06747 l -0.1905,0.780521 c 0,0.0014 -0.002,0.0053 -0.002,0.0119 -0.002,0.0066 -0.002,0.0119 -0.002,0.01587 z m 0.34528,0.406136 c 0,0.02116 0.007,0.04101 0.0199,0.06085 0.0132,0.01985 0.0331,0.03307 0.0595,0.04101 0.0145,0.004 0.0251,0.0053 0.0318,0.0053 0.0582,0 0.0939,-0.02646 0.10848,-0.07805 l 0.29765,-1.181365 c 0.008,-0.03175 0.005,-0.06085 -0.009,-0.08599 -0.0145,-0.02514 -0.037,-0.04234 -0.0661,-0.05159 -0.0305,-0.0093 -0.0595,-0.0066 -0.0873,0.0093 -0.0278,0.01587 -0.045,0.03704 -0.0516,0.06615 l -0.29898,1.180042 c 0,0.0014 0,0.0066 -10e-4,0.01588 -0.003,0.0079 -0.003,0.01455 -0.003,0.01852 z m 0.55034,-0.395552 c 0,0.04763 0.0278,0.07937 0.0833,0.0979 0.0185,0.0053 0.0318,0.0079 0.0397,0.0079 0.0145,0 0.0304,-0.0027 0.0463,-0.0093 0.0278,-0.01058 0.045,-0.03704 0.0516,-0.07673 l 0.18917,-0.776552 c 0.008,-0.03175 0.005,-0.05953 -0.0106,-0.08599 -0.0145,-0.02514 -0.037,-0.04234 -0.0675,-0.05159 -0.0304,-0.0093 -0.0595,-0.0066 -0.0873,0.0093 -0.0278,0.01455 -0.0436,0.03704 -0.0503,0.06747 l -0.18918,0.780521 c -0.002,0.02116 -0.005,0.0344 -0.005,0.03704 z m 0.1561,-1.99099 c 0.0423,-0.07673 0.0992,-0.134937 0.1733,-0.175948 0.0728,-0.03968 0.15082,-0.05953 0.23284,-0.05821 0.0159,0 0.0278,0 0.0357,0.0014 v 0.03968 c -0.001,0.128321 0.0318,0.248706 0.10187,0.3638 0.0688,0.113771 0.16669,0.201084 0.29236,0.260615 -0.0291,0.06085 -0.0648,0.107156 -0.1045,0.141552 -0.12171,-0.100542 -0.26327,-0.14949 -0.42731,-0.14949 h -0.041 c -0.0357,-0.16801 -0.12303,-0.30824 -0.26326,-0.423333 z"
         id="path1-7"
         style="stroke-width:0.132291"
         inkscape:transform-center-x="1.5875"
         inkscape:transform-center-y="-0.26458333"
         inkscape:label="path1-7" /><path
         d="m 90.157721,95.924735 c 0,0.175949 0.0622,0.328084 0.18521,0.455084 0.12303,0.127 0.27384,0.194469 0.44979,0.202406 0.0159,0 0.0238,-0.0079 0.0238,-0.02249 v -0.177271 c 0,-0.01455 -0.008,-0.02249 -0.0238,-0.02249 -0.11377,-0.0066 -0.21034,-0.0516 -0.28972,-0.136261 -0.0794,-0.08467 -0.11906,-0.183886 -0.11906,-0.29898 0,-0.109802 0.0371,-0.205051 0.11245,-0.287072 0.0754,-0.08202 0.16801,-0.128323 0.27781,-0.141552 l 0.0701,-0.0053 c 0.0172,0 0.0265,-0.0079 0.0265,-0.02249 l 0.009,-0.07144 c 0.0146,-0.142875 0.0754,-0.26326 0.18257,-0.359834 0.10715,-0.09657 0.23415,-0.14552 0.37835,-0.14552 0.1442,0 0.26988,0.04895 0.37836,0.14552 0.10848,0.09657 0.16933,0.216959 0.1852,0.359834 l 0.0106,0.07541 c 0,0.01588 0.008,0.02381 0.0225,0.02381 h 0.21432 c 0.11774,0 0.22092,0.04233 0.30691,0.127 0.086,0.08467 0.12964,0.185209 0.12964,0.301625 0,0.115094 -0.0397,0.214313 -0.11905,0.29898 -0.0794,0.08467 -0.17595,0.129645 -0.28973,0.13626 -0.0185,0 -0.0278,0.0079 -0.0278,0.02249 v 0.17727 c 0,0.01455 0.009,0.02249 0.0278,0.02249 0.17596,-0.0053 0.32545,-0.07276 0.44715,-0.19976 0.12304,-0.128322 0.18388,-0.280458 0.18388,-0.456406 0,-0.116417 -0.0305,-0.224896 -0.09,-0.325438 0.10715,-0.09657 0.17594,-0.211666 0.20902,-0.346603 l 0.0185,-0.09525 c 10e-4,-0.0014 0.002,-0.004 0.002,-0.0093 0,-0.0093 -0.007,-0.0172 -0.0212,-0.02116 l -0.0741,-0.02381 c -0.0754,-0.02117 -0.14023,-0.05821 -0.19314,-0.109802 -0.0542,-0.0516 -0.0926,-0.105834 -0.11509,-0.16272 -0.0225,-0.05688 -0.0344,-0.113771 -0.0344,-0.169333 -0.002,-0.02911 0.002,-0.06615 0.0106,-0.108479 l 0.0185,-0.0807 c 0.005,-0.01323 0,-0.02381 -0.0185,-0.03175 l -0.10451,-0.03175 c -0.0595,-0.01323 -0.1151,-0.01985 -0.16802,-0.01985 -0.0503,0 -0.10054,0.0053 -0.1508,0.0172 -0.0516,0.0119 -0.10451,0.02911 -0.15875,0.05424 -0.0542,0.02382 -0.10717,0.05953 -0.15875,0.105833 -0.0516,0.0463 -0.0953,0.09922 -0.1323,0.161397 -0.10847,-0.03969 -0.21166,-0.05953 -0.30824,-0.05953 -0.18653,0 -0.35321,0.05821 -0.49741,0.174626 -0.1442,0.116416 -0.23813,0.264582 -0.27914,0.445822 -0.14684,0.0344 -0.26723,0.109802 -0.36248,0.228865 -0.0979,0.117739 -0.14552,0.254 -0.14552,0.406135 z m 0.73554,0.904875 c 0,0.02249 0.007,0.04366 0.0212,0.06482 0.0145,0.02116 0.0357,0.03572 0.0648,0.04366 0.0305,0.0093 0.0595,0.0066 0.0847,-0.0053 0.0264,-0.01323 0.0436,-0.03704 0.0529,-0.07408 l 0.18918,-0.776552 c 0.008,-0.03307 0.004,-0.0635 -0.0106,-0.08863 -0.0159,-0.02646 -0.0383,-0.04233 -0.0688,-0.04895 -0.0291,-0.0093 -0.0569,-0.0066 -0.0834,0.0093 -0.0264,0.01455 -0.045,0.03704 -0.0542,0.06747 l -0.1905,0.780521 c 0,0.0014 -0.002,0.0053 -0.002,0.0119 -0.002,0.0066 -0.002,0.0119 -0.002,0.01587 z m 0.34528,0.406136 c 0,0.02116 0.007,0.04101 0.0199,0.06085 0.0132,0.01985 0.0331,0.03307 0.0595,0.04101 0.0145,0.004 0.0251,0.0053 0.0318,0.0053 0.0582,0 0.0939,-0.02646 0.10848,-0.07805 l 0.29765,-1.181365 c 0.008,-0.03175 0.005,-0.06085 -0.009,-0.08599 -0.0145,-0.02514 -0.037,-0.04234 -0.0661,-0.05159 -0.0305,-0.0093 -0.0595,-0.0066 -0.0873,0.0093 -0.0278,0.01587 -0.045,0.03704 -0.0516,0.06615 l -0.29898,1.180042 c 0,0.0014 0,0.0066 -0.001,0.01588 -0.003,0.0079 -0.003,0.01455 -0.003,0.01852 z m 0.55034,-0.395552 c 0,0.04763 0.0278,0.07937 0.0833,0.0979 0.0185,0.0053 0.0318,0.0079 0.0397,0.0079 0.0145,0 0.0304,-0.0027 0.0463,-0.0093 0.0278,-0.01058 0.045,-0.03704 0.0516,-0.07673 l 0.18917,-0.776552 c 0.008,-0.03175 0.005,-0.05953 -0.0106,-0.08599 -0.0145,-0.02514 -0.037,-0.04234 -0.0675,-0.05159 -0.0304,-0.0093 -0.0595,-0.0066 -0.0873,0.0093 -0.0278,0.01455 -0.0436,0.03704 -0.0503,0.06747 l -0.18918,0.780521 c -0.002,0.02116 -0.005,0.0344 -0.005,0.03704 z m 0.1561,-1.99099 c 0.0423,-0.07673 0.0992,-0.134937 0.1733,-0.175948 0.0728,-0.03968 0.15082,-0.05953 0.23284,-0.05821 0.0159,0 0.0278,0 0.0357,0.0014 v 0.03968 c -10e-4,0.128321 0.0318,0.248706 0.10187,0.3638 0.0688,0.113771 0.16669,0.201084 0.29236,0.260615 -0.0291,0.06085 -0.0648,0.107156 -0.1045,0.141552 -0.12171,-0.100542 -0.26327,-0.14949 -0.42731,-0.14949 h -0.041 c -0.0357,-0.16801 -0.12303,-0.30824 -0.26326,-0.423333 z"
         id="path1-7-9"
         style="stroke-width:0.132291"
         inkscape:transform-center-x="1.5875"
         inkscape:transform-center-y="-0.26458333" /><path
         d="m 90.091575,99.562756 c 0,0.175949 0.0622,0.328084 0.18521,0.455084 0.12303,0.127 0.27384,0.19447 0.44979,0.20241 0.0159,0 0.0238,-0.008 0.0238,-0.0225 v -0.17727 c 0,-0.0145 -0.008,-0.02249 -0.0238,-0.02249 -0.11377,-0.0066 -0.21034,-0.0516 -0.28972,-0.136261 -0.0794,-0.08467 -0.11906,-0.183886 -0.11906,-0.29898 0,-0.109802 0.0371,-0.205051 0.11245,-0.287072 0.0754,-0.08202 0.16801,-0.128323 0.27781,-0.141552 l 0.0701,-0.0053 c 0.0172,0 0.0265,-0.0079 0.0265,-0.02249 l 0.009,-0.07144 c 0.0146,-0.142875 0.0754,-0.26326 0.18257,-0.359834 0.10715,-0.09657 0.23415,-0.14552 0.37835,-0.14552 0.1442,0 0.26988,0.04895 0.37836,0.14552 0.10848,0.09657 0.16933,0.216959 0.1852,0.359834 l 0.0106,0.07541 c 0,0.01588 0.008,0.02381 0.0225,0.02381 h 0.21432 c 0.11774,0 0.22092,0.04233 0.30691,0.127 0.086,0.08467 0.12964,0.185209 0.12964,0.301625 0,0.115094 -0.0397,0.214313 -0.11905,0.29898 -0.0794,0.08467 -0.17595,0.129645 -0.28973,0.13626 -0.0185,0 -0.0278,0.0079 -0.0278,0.0225 v 0.17727 c 0,0.0145 0.009,0.0225 0.0278,0.0225 0.17596,-0.005 0.32545,-0.0728 0.44715,-0.19976 0.12304,-0.128327 0.18388,-0.280463 0.18388,-0.456411 0,-0.116417 -0.0305,-0.224896 -0.09,-0.325438 0.10715,-0.09657 0.17594,-0.211666 0.20902,-0.346603 l 0.0185,-0.09525 c 0.001,-0.0014 0.002,-0.004 0.002,-0.0093 0,-0.0093 -0.007,-0.0172 -0.0212,-0.02116 l -0.0741,-0.02381 c -0.0754,-0.02117 -0.14023,-0.05821 -0.19314,-0.109802 -0.0542,-0.0516 -0.0926,-0.105834 -0.11509,-0.16272 -0.0225,-0.05688 -0.0344,-0.113771 -0.0344,-0.169333 -0.002,-0.02911 0.002,-0.06615 0.0106,-0.108479 l 0.0185,-0.0807 c 0.005,-0.01323 0,-0.02381 -0.0185,-0.03175 l -0.10451,-0.03175 c -0.0595,-0.01323 -0.1151,-0.01985 -0.16802,-0.01985 -0.0503,0 -0.10054,0.0053 -0.1508,0.0172 -0.0516,0.0119 -0.10451,0.02911 -0.15875,0.05424 -0.0542,0.02382 -0.10717,0.05953 -0.15875,0.105833 -0.0516,0.0463 -0.0953,0.09922 -0.1323,0.161397 -0.10847,-0.03969 -0.21166,-0.05953 -0.30824,-0.05953 -0.18653,0 -0.35321,0.05821 -0.49741,0.174626 -0.1442,0.116416 -0.23813,0.264582 -0.27914,0.445822 -0.14684,0.0344 -0.26723,0.109802 -0.36248,0.228865 -0.0979,0.117739 -0.14552,0.254 -0.14552,0.406135 z m 0.73554,0.904884 c 0,0.0225 0.007,0.0437 0.0212,0.0648 0.0145,0.0212 0.0357,0.0357 0.0648,0.0437 0.0305,0.009 0.0595,0.007 0.0847,-0.005 0.0264,-0.0132 0.0436,-0.037 0.0529,-0.0741 l 0.18918,-0.776561 c 0.008,-0.03307 0.004,-0.0635 -0.0106,-0.08863 -0.0159,-0.02646 -0.0383,-0.04233 -0.0688,-0.04895 -0.0291,-0.0093 -0.0569,-0.0066 -0.0834,0.0093 -0.0264,0.01455 -0.045,0.03704 -0.0542,0.06747 l -0.1905,0.780521 c 0,0.001 -0.002,0.005 -0.002,0.0119 -0.002,0.007 -0.002,0.0119 -0.002,0.0159 z m 0.34528,0.40613 c 0,0.0212 0.007,0.041 0.0199,0.0609 0.0132,0.0199 0.0331,0.0331 0.0595,0.041 0.0145,0.004 0.0251,0.005 0.0318,0.005 0.0582,0 0.0939,-0.0265 0.10848,-0.0781 l 0.29765,-1.181368 c 0.008,-0.03175 0.005,-0.06085 -0.009,-0.08599 -0.0145,-0.02514 -0.037,-0.04234 -0.0661,-0.05159 -0.0305,-0.0093 -0.0595,-0.0066 -0.0873,0.0093 -0.0278,0.01587 -0.045,0.03704 -0.0516,0.06615 l -0.29898,1.180048 c 0,0.001 0,0.007 -10e-4,0.0159 -0.003,0.008 -0.003,0.0145 -0.003,0.0185 z m 0.55034,-0.39555 c 0,0.0476 0.0278,0.0794 0.0833,0.0979 0.0185,0.005 0.0318,0.008 0.0397,0.008 0.0145,0 0.0304,-0.003 0.0463,-0.009 0.0278,-0.0106 0.045,-0.037 0.0516,-0.0767 l 0.18917,-0.776557 c 0.008,-0.03175 0.005,-0.05953 -0.0106,-0.08599 -0.0145,-0.02514 -0.037,-0.04234 -0.0675,-0.05159 -0.0304,-0.0093 -0.0595,-0.0066 -0.0873,0.0093 -0.0278,0.01455 -0.0436,0.03704 -0.0503,0.06747 l -0.18918,0.780527 c -0.002,0.0212 -0.005,0.0344 -0.005,0.037 z m 0.1561,-1.990995 c 0.0423,-0.07673 0.0992,-0.134937 0.1733,-0.175948 0.0728,-0.03968 0.15082,-0.05953 0.23284,-0.05821 0.0159,0 0.0278,0 0.0357,0.0014 v 0.03968 c -10e-4,0.128321 0.0318,0.248706 0.10187,0.3638 0.0688,0.113771 0.16669,0.201084 0.29236,0.260615 -0.0291,0.06085 -0.0648,0.107156 -0.1045,0.141552 -0.12171,-0.100542 -0.26327,-0.14949 -0.42731,-0.14949 h -0.041 c -0.0357,-0.16801 -0.12303,-0.30824 -0.26326,-0.423333 z"
         id="path1-7-9-5"
         style="stroke-width:0.132291"
         inkscape:transform-center-x="1.5875"
         inkscape:transform-center-y="-0.26458333" /><path
         d="m 90.109066,103.251 c 0,0.17595 0.0622,0.32676 0.18521,0.45376 0.12303,0.127 0.27384,0.19447 0.44979,0.19976 0.0159,0 0.0238,-0.008 0.0238,-0.0225 v -0.17727 c 0,-0.0145 -0.008,-0.0225 -0.0238,-0.0225 -0.11245,-0.005 -0.20902,-0.0516 -0.28839,-0.13626 -0.0807,-0.0847 -0.12039,-0.18388 -0.12039,-0.29633 0,-0.11245 0.0371,-0.20902 0.11245,-0.29104 0.0754,-0.082 0.16801,-0.127 0.27781,-0.13626 l 0.0701,-0.009 c 0.0172,0 0.0264,-0.008 0.0264,-0.0225 l 0.009,-0.0688 c 0.0145,-0.1442 0.0741,-0.26591 0.18124,-0.3638 0.10715,-0.0979 0.23283,-0.14685 0.37835,-0.14685 0.1442,0 0.26988,0.0489 0.37835,0.14552 0.10848,0.0966 0.16934,0.21696 0.18521,0.35984 l 0.0106,0.0754 c 0,0.0159 0.008,0.0238 0.0225,0.0238 h 0.21432 c 0.12038,0 0.22225,0.0423 0.30824,0.12832 0.086,0.0847 0.12832,0.18653 0.12832,0.30559 0,0.11245 -0.0397,0.21167 -0.12039,0.29634 -0.0807,0.0847 -0.17595,0.12964 -0.28839,0.13626 -0.0185,0 -0.0278,0.008 -0.0278,0.0225 v 0.17727 c 0,0.0145 0.009,0.0225 0.0278,0.0225 0.11641,-0.003 0.22225,-0.0344 0.31882,-0.0939 0.0966,-0.0595 0.1733,-0.13891 0.22886,-0.23813 0.0556,-0.0992 0.0834,-0.20637 0.0834,-0.32147 0,-0.12038 -0.0291,-0.23018 -0.086,-0.32808 0.0979,-0.0873 0.16404,-0.20108 0.20108,-0.34131 l 0.0225,-0.0952 c 0.002,-0.001 0.003,-0.005 0.003,-0.0106 0,-0.009 -0.007,-0.0172 -0.0212,-0.0212 l -0.0807,-0.0225 c -0.0582,-0.0172 -0.1098,-0.0423 -0.15478,-0.0754 -0.045,-0.0331 -0.0807,-0.0701 -0.10715,-0.11113 -0.0264,-0.041 -0.045,-0.082 -0.0582,-0.12567 -0.0132,-0.0423 -0.0198,-0.0847 -0.0198,-0.12568 0,-0.0357 0.004,-0.0741 0.0132,-0.11377 l 0.0145,-0.082 c 0.002,-0.0119 -0.003,-0.0225 -0.0185,-0.0291 l -0.10583,-0.0318 c -0.0582,-0.0145 -0.11245,-0.0212 -0.16537,-0.0212 -0.0489,0 -0.0979,0.005 -0.14817,0.0172 -0.0503,0.0119 -0.10186,0.0291 -0.1561,0.0542 -0.0542,0.0251 -0.10583,0.0595 -0.1561,0.10583 -0.0503,0.0463 -0.0939,0.0992 -0.13097,0.1614 -0.10716,-0.0437 -0.21167,-0.0661 -0.31486,-0.0661 -0.18653,0 -0.35322,0.0582 -0.49741,0.17462 -0.1442,0.11642 -0.23813,0.26458 -0.27914,0.44582 -0.14817,0.037 -0.26987,0.1151 -0.3638,0.23284 -0.0939,0.11906 -0.14155,0.25532 -0.14155,0.40878 z m 0.84535,0.54108 c 0,0.0318 0.0106,0.0582 0.0318,0.0794 0.0212,0.0225 0.0463,0.0331 0.0781,0.0331 0.0318,0 0.0582,-0.0106 0.0794,-0.0331 0.0212,-0.0225 0.0318,-0.0489 0.0318,-0.0794 0,-0.0291 -0.0106,-0.0556 -0.0318,-0.0767 -0.0211,-0.0212 -0.0476,-0.0318 -0.0794,-0.0318 -0.0305,0 -0.0569,0.0106 -0.0781,0.0318 -0.0211,0.0212 -0.0318,0.0463 -0.0318,0.0767 z m 0,0.48154 c 0,0.0304 0.0106,0.0556 0.0318,0.0767 0.0212,0.0212 0.0476,0.0317 0.0767,0.0317 0.0318,0 0.0582,-0.0106 0.0794,-0.0304 0.0211,-0.0212 0.0317,-0.0463 0.0317,-0.0781 0,-0.0318 -0.0106,-0.0569 -0.0317,-0.078 -0.0212,-0.0212 -0.0476,-0.0304 -0.0794,-0.0304 -0.0317,0 -0.0569,0.0106 -0.0781,0.0304 -0.0199,0.0198 -0.0305,0.0463 -0.0305,0.078 z m 0.42333,-0.2249 c 0,0.0318 0.0106,0.0582 0.0318,0.078 0.0211,0.0212 0.0476,0.0318 0.0767,0.0318 0.0318,0 0.0582,-0.0106 0.0807,-0.0318 0.0225,-0.0212 0.0331,-0.0476 0.0331,-0.078 0,-0.0318 -0.0106,-0.0582 -0.0331,-0.0807 -0.0225,-0.0225 -0.0489,-0.0344 -0.0807,-0.0344 -0.0291,0 -0.0542,0.0119 -0.0767,0.0344 -0.0225,0.0225 -0.0318,0.049 -0.0318,0.0807 z m 0,-0.48154 c 0,0.0318 0.0106,0.0569 0.0318,0.0767 0.0211,0.0212 0.0476,0.0317 0.0767,0.0317 0.0318,0 0.0595,-0.0106 0.0807,-0.0304 0.0212,-0.0199 0.0331,-0.0463 0.0331,-0.0781 0,-0.0304 -0.0106,-0.0569 -0.0331,-0.0794 -0.0225,-0.0225 -0.0489,-0.0331 -0.0807,-0.0331 -0.0291,0 -0.0556,0.0106 -0.0767,0.0331 -0.0212,0.0225 -0.0318,0.049 -0.0318,0.0794 z m 0,0.96705 c 0,0.0291 0.0106,0.0542 0.0318,0.0754 0.0225,0.0225 0.0476,0.0331 0.0767,0.0331 0.0318,0 0.0582,-0.0106 0.0807,-0.0318 0.0225,-0.0212 0.0331,-0.0463 0.0331,-0.078 0,-0.0318 -0.0106,-0.0582 -0.0331,-0.0807 -0.0225,-0.0225 -0.0489,-0.0344 -0.0807,-0.0344 -0.0291,0 -0.0542,0.0119 -0.0767,0.0344 -0.0199,0.0238 -0.0318,0.0516 -0.0318,0.082 z m 0.42862,-0.74215 c 0,0.0318 0.0106,0.0582 0.0331,0.0794 0.0225,0.0212 0.0477,0.0331 0.0794,0.0331 0.0318,0 0.0569,-0.0106 0.0781,-0.0331 0.0211,-0.0225 0.0318,-0.0489 0.0318,-0.0794 0,-0.0291 -0.0106,-0.0556 -0.0318,-0.0767 -0.0212,-0.0212 -0.0463,-0.0318 -0.0781,-0.0318 -0.0318,0 -0.0569,0.0106 -0.0794,0.0318 -0.0225,0.0212 -0.0331,0.0463 -0.0331,0.0767 z m 0,0.48154 c 0,0.0304 0.0106,0.0556 0.0318,0.0767 0.0212,0.0212 0.0477,0.0317 0.0794,0.0317 0.0318,0 0.0569,-0.0106 0.0781,-0.0317 0.0211,-0.0212 0.0304,-0.0463 0.0304,-0.0781 0,-0.0318 -0.0106,-0.0569 -0.0304,-0.0781 -0.0212,-0.0212 -0.0463,-0.0304 -0.0781,-0.0304 -0.0318,0 -0.0582,0.0106 -0.0794,0.0304 -0.0212,0.0212 -0.0318,0.0476 -0.0318,0.0794 z m 0.09,-2.10212 c 0.041,-0.0714 0.0992,-0.127 0.17198,-0.16668 0.0728,-0.0397 0.14817,-0.0595 0.22622,-0.0609 0.0198,0 0.0344,10e-4 0.0436,0.003 v 0.041 c 0,0.12832 0.0344,0.2487 0.10319,0.36247 0.0688,0.11378 0.16536,0.19976 0.28707,0.2593 -0.0212,0.0476 -0.0542,0.0952 -0.10054,0.14155 -0.11774,-0.10451 -0.25929,-0.15611 -0.4273,-0.15611 h -0.041 c -0.0357,-0.16271 -0.12303,-0.30294 -0.26326,-0.42333 z"
         id="path1-77"
         style="stroke-width:0.132291" /><path
         d="m 89.979502,107.42745 c 0,0.11377 0.0278,0.22092 0.0847,0.31882 0.0556,0.0979 0.13228,0.17727 0.23019,0.2368 0.0966,0.0595 0.20372,0.0913 0.3175,0.0939 0.0145,0 0.0225,-0.008 0.0225,-0.0225 v -0.17595 c 0,-0.0159 -0.008,-0.0251 -0.0225,-0.0251 -0.11245,-0.005 -0.20903,-0.0503 -0.2884,-0.13494 -0.0794,-0.0847 -0.11906,-0.18123 -0.11906,-0.29236 0,-0.10848 0.037,-0.20373 0.11245,-0.28575 0.0754,-0.0807 0.16668,-0.12832 0.27781,-0.14155 l 0.0701,-0.008 c 0.0159,0 0.0238,-0.008 0.0238,-0.0251 l 0.0106,-0.0675 c 0.0145,-0.1442 0.0741,-0.26459 0.17992,-0.36116 0.10583,-0.0966 0.23151,-0.1442 0.37703,-0.1442 0.1442,0 0.26988,0.0476 0.37703,0.1442 0.10848,0.0966 0.16933,0.21564 0.18256,0.35719 l 0.009,0.0767 c 0,0.0145 0.008,0.0225 0.0225,0.0225 h 0.21299 c 0.11907,0 0.22093,0.0423 0.30559,0.127 0.0847,0.0847 0.12701,0.18521 0.12701,0.30295 0,0.11112 -0.0397,0.2077 -0.11907,0.29236 -0.0794,0.0833 -0.17594,0.12833 -0.28707,0.13494 -0.0159,0 -0.0251,0.008 -0.0251,0.0251 v 0.17595 c 0,0.0145 0.008,0.0225 0.0251,0.0225 0.17595,-0.005 0.32412,-0.0714 0.44715,-0.19844 0.12303,-0.127 0.18388,-0.27649 0.18388,-0.45111 0,-0.10055 -0.0185,-0.18918 -0.0569,-0.26856 0.0992,-0.12303 0.15213,-0.26855 0.15213,-0.43391 0,-0.12436 -0.0305,-0.23945 -0.0926,-0.34528 -0.0622,-0.10584 -0.14684,-0.1905 -0.25268,-0.25268 -0.10583,-0.0622 -0.22225,-0.0926 -0.3466,-0.0926 -0.20373,0 -0.37439,0.0767 -0.51197,0.22886 -0.10716,-0.0582 -0.22622,-0.0873 -0.35587,-0.0873 -0.18653,0 -0.35057,0.0582 -0.49477,0.17331 -0.14419,0.11509 -0.23548,0.26326 -0.27649,0.44185 -0.14816,0.037 -0.26855,0.11377 -0.36248,0.23151 -0.0939,0.11906 -0.14022,0.254 -0.14022,0.40746 z m 0.83873,0.53578 c 0,0.0318 0.0106,0.0582 0.0318,0.0807 0.0212,0.0225 0.0463,0.0331 0.0781,0.0331 0.0305,0 0.0569,-0.0106 0.078,-0.0331 0.0212,-0.0225 0.0318,-0.049 0.0318,-0.0807 0,-0.0304 -0.0106,-0.0556 -0.0318,-0.0767 -0.0211,-0.0212 -0.0463,-0.0318 -0.078,-0.0318 -0.0304,0 -0.0569,0.0106 -0.0781,0.0318 -0.0212,0.0212 -0.0318,0.0476 -0.0318,0.0767 z m 0,0.48022 c 0,0.0278 0.0106,0.0529 0.0318,0.0754 0.0238,0.0212 0.049,0.0318 0.0767,0.0318 0.0317,0 0.0569,-0.0106 0.0781,-0.0304 0.0212,-0.0212 0.0305,-0.0463 0.0305,-0.0767 0,-0.0318 -0.0106,-0.0569 -0.0318,-0.0781 -0.0212,-0.0212 -0.0463,-0.0304 -0.0781,-0.0304 -0.0304,0 -0.0569,0.0106 -0.078,0.0304 -0.0185,0.0199 -0.0291,0.0463 -0.0291,0.0781 z m 0.27119,-2.63658 c 0,0.0318 0.0106,0.0582 0.0318,0.078 l 0.0873,0.0873 c 0.0212,0.0212 0.045,0.0331 0.0701,0.0331 0.0278,0.004 0.0543,-0.005 0.0807,-0.0291 0.0264,-0.0238 0.0397,-0.0516 0.0397,-0.0833 0,-0.0318 -0.0106,-0.0609 -0.0318,-0.0847 l -0.0847,-0.0807 c -0.0198,-0.0225 -0.045,-0.0331 -0.0767,-0.0331 -0.0331,0 -0.0608,0.0106 -0.0833,0.0331 -0.0225,0.0212 -0.0331,0.0476 -0.0331,0.0794 z m 0.1495,2.41036 c 0,0.0291 0.0106,0.0556 0.0317,0.0794 0.0211,0.0212 0.0476,0.0318 0.0767,0.0318 0.0318,0 0.0582,-0.0106 0.0794,-0.0318 0.0211,-0.0212 0.0331,-0.0476 0.0331,-0.0794 0,-0.0304 -0.0106,-0.0569 -0.0331,-0.0794 -0.0225,-0.0225 -0.049,-0.0331 -0.0794,-0.0331 -0.0305,0 -0.0556,0.0106 -0.0767,0.0331 -0.0211,0.0225 -0.0317,0.0489 -0.0317,0.0794 z m 0,-0.47625 c 0,0.0304 0.0106,0.0556 0.0317,0.0767 0.0211,0.0212 0.0476,0.0317 0.0767,0.0317 0.0318,0 0.0582,-0.0106 0.0794,-0.0317 0.0225,-0.0212 0.0331,-0.0463 0.0331,-0.0781 0,-0.0304 -0.0106,-0.0569 -0.0331,-0.0781 -0.0225,-0.0212 -0.049,-0.0318 -0.0794,-0.0318 -0.0305,0 -0.0556,0.0106 -0.0767,0.0318 -0.0211,0.0212 -0.0317,0.049 -0.0317,0.0794 z m 0,0.96043 c 0,0.0291 0.0106,0.0542 0.0317,0.0754 0.0225,0.0225 0.0476,0.0331 0.0767,0.0331 0.0318,0 0.0582,-0.0106 0.0794,-0.0304 0.0225,-0.0212 0.0331,-0.0463 0.0331,-0.0781 0,-0.0318 -0.0106,-0.0582 -0.0331,-0.0794 -0.0225,-0.0225 -0.049,-0.0331 -0.0794,-0.0331 -0.0291,0 -0.0542,0.0106 -0.0767,0.0331 -0.0211,0.0225 -0.0317,0.049 -0.0317,0.0794 z m 0.42597,-0.73818 c 0,0.0318 0.0106,0.0582 0.0318,0.0807 0.0211,0.0225 0.0476,0.0331 0.078,0.0331 0.0305,0 0.0569,-0.0106 0.0781,-0.0331 0.0212,-0.0225 0.0318,-0.049 0.0318,-0.0807 0,-0.0304 -0.0106,-0.0556 -0.0318,-0.0767 -0.0211,-0.0212 -0.0463,-0.0318 -0.0781,-0.0318 -0.0317,0 -0.0569,0.0106 -0.078,0.0318 -0.0212,0.0212 -0.0318,0.0476 -0.0318,0.0767 z m 0,0.48022 c 0,0.0278 0.0106,0.0529 0.0305,0.0754 0.0238,0.0212 0.0503,0.0318 0.0794,0.0318 0.0318,0 0.0569,-0.0106 0.0781,-0.0304 0.0211,-0.0212 0.0304,-0.0463 0.0304,-0.0767 0,-0.0318 -0.0106,-0.0569 -0.0318,-0.0781 -0.0212,-0.0212 -0.0463,-0.0304 -0.0781,-0.0304 -0.0318,0 -0.0582,0.0106 -0.0794,0.0318 -0.0185,0.0199 -0.0291,0.0463 -0.0291,0.0767 z m 0.12965,-2.05714 c 0.0913,-0.0873 0.19976,-0.13097 0.32676,-0.13097 0.12832,0 0.23812,0.0463 0.32809,0.13759 0.0913,0.0913 0.13626,0.2024 0.13626,0.3294 0,0.082 -0.0225,0.16404 -0.0675,0.24342 -0.12567,-0.127 -0.27913,-0.1905 -0.45904,-0.1905 h -0.0424 c -0.0397,-0.15478 -0.11377,-0.28443 -0.22225,-0.38894 z m 0.21167,-0.69056 c 0,0.0304 0.0106,0.0569 0.0331,0.0767 0.0225,0.0198 0.049,0.0304 0.0807,0.0304 0.0317,0 0.0569,-0.0106 0.078,-0.0304 0.0212,-0.0212 0.0304,-0.0463 0.0304,-0.0767 v -0.26988 c 0,-0.0318 -0.0106,-0.0582 -0.0317,-0.0807 -0.0211,-0.0225 -0.045,-0.0331 -0.0754,-0.0331 -0.0305,0 -0.0569,0.0119 -0.0794,0.0344 -0.0225,0.0225 -0.0344,0.0489 -0.0344,0.0794 v 0.26988 z m 0.73024,0.3003 c 0,0.0304 0.0106,0.0569 0.0331,0.0781 0.0199,0.0212 0.045,0.0318 0.0741,0.0344 0.0291,0.003 0.0569,-0.009 0.082,-0.0344 l 0.18918,-0.18918 c 0.0238,-0.0238 0.0344,-0.0503 0.0344,-0.0807 0,-0.0318 -0.0119,-0.0582 -0.0344,-0.0807 -0.0225,-0.0225 -0.0489,-0.0331 -0.0794,-0.0331 -0.0291,0 -0.0542,0.0106 -0.0767,0.0331 l -0.18918,0.19315 c -0.0225,0.0212 -0.0331,0.0476 -0.0331,0.0794 z m 0.10584,1.56104 c 0,0.0331 0.0106,0.0609 0.0318,0.082 l 0.0847,0.0833 c 0.0318,0.0212 0.0609,0.0318 0.0847,0.0318 0.0278,0 0.0516,-0.0119 0.0741,-0.0344 0.0225,-0.0225 0.0331,-0.0503 0.0331,-0.0807 0,-0.0304 -0.0119,-0.0556 -0.0344,-0.0767 l -0.082,-0.086 c -0.0238,-0.0212 -0.0503,-0.0318 -0.0807,-0.0318 -0.0305,0 -0.0569,0.0106 -0.078,0.0331 -0.0225,0.0212 -0.0331,0.0476 -0.0331,0.0794 z m 0.19182,-0.83476 c 0,0.0318 0.0119,0.0569 0.0344,0.0781 0.0225,0.0238 0.0503,0.0357 0.082,0.0357 h 0.26723 c 0.0305,0 0.0569,-0.0106 0.0794,-0.0331 0.0225,-0.0225 0.0331,-0.049 0.0331,-0.0807 0,-0.0318 -0.0106,-0.0582 -0.0331,-0.0794 -0.0225,-0.0212 -0.049,-0.0331 -0.0794,-0.0331 h -0.26723 c -0.0318,0 -0.0582,0.0106 -0.082,0.0331 -0.0238,0.0225 -0.0344,0.0489 -0.0344,0.0794 z"
         id="path1-8"
         style="stroke-width:0.132291" /></g><path
       d="m 93.951899,67.290391 c 0,-0.100581 0.03449,-0.188585 0.107698,-0.259831 0.07324,-0.06703 0.163712,-0.100582 0.258481,-0.100582 h 0.878894 c 0.0991,0 0.18094,0.03355 0.249884,0.104763 0.06465,0.07124 0.0991,0.155069 0.0991,0.25565 0,0.100581 -0.03029,0.184404 -0.0948,0.25565 -0.06464,0.07124 -0.150784,0.104763 -0.249884,0.104763 h -0.878895 c -0.0991,0 -0.185272,-0.03355 -0.258482,-0.104763 -0.07324,-0.07124 -0.112029,-0.155069 -0.112029,-0.25565 z m 1.232173,2.904276 c 0,-0.09637 0.03446,-0.180191 0.09907,-0.255651 l 0.633328,-0.599294 c 0.06461,-0.06703 0.150784,-0.09637 0.254183,-0.09637 0.103399,0 0.18957,0.03351 0.258482,0.09637 0.06891,0.06288 0.103399,0.142492 0.103399,0.238891 0,0.100581 -0.03449,0.192799 -0.103399,0.268227 l -0.611779,0.595103 c -0.176641,0.13413 -0.35328,0.13413 -0.529922,0 -0.06894,-0.06703 -0.103399,-0.150855 -0.103399,-0.247255 z m 0,-5.800173 c 0,-0.09637 0.03446,-0.18019 0.09907,-0.255649 0.08617,-0.07124 0.176642,-0.104763 0.275742,-0.104763 0.09477,0 0.180941,0.03355 0.254183,0.100581 l 0.616087,0.616056 c 0.06894,0.06288 0.103399,0.146674 0.103399,0.247255 0,0.100581 -0.03445,0.184404 -0.103399,0.251437 -0.06891,0.06706 -0.155082,0.100581 -0.258482,0.100581 -0.103399,0 -0.18957,-0.03355 -0.254183,-0.100581 l -0.629012,-0.599295 c -0.06891,-0.06703 -0.1034,-0.155069 -0.1034,-0.25565 z m 1.098618,2.895897 c 0,-0.389754 0.09907,-0.754358 0.301567,-1.08963 0.2025,-0.335268 0.473914,-0.603485 0.822886,-0.800456 0.348975,-0.196981 0.719486,-0.293349 1.120157,-0.293349 0.301568,0 0.590239,0.05867 0.87028,0.17601 0.275742,0.117339 0.516996,0.272408 0.71518,0.469378 0.2025,0.196981 0.36189,0.427468 0.47822,0.695685 0.11632,0.268227 0.17664,0.553196 0.17664,0.846553 0,0.393945 -0.0991,0.758552 -0.30157,1.093821 -0.2025,0.335272 -0.473913,0.599295 -0.818576,0.796266 -0.344667,0.19698 -0.719486,0.293347 -1.124466,0.293347 -0.40498,0 -0.779806,-0.0964 -1.124466,-0.293347 -0.344666,-0.196981 -0.616087,-0.460997 -0.81858,-0.796266 -0.19387,-0.339464 -0.297269,-0.704067 -0.297269,-1.098009 z m 0.732412,0 c 0,0.410707 0.146485,0.758545 0.443753,1.047718 0.29297,0.289166 0.650553,0.435853 1.07277,0.435853 0.422211,0 0.779799,-0.146674 1.077071,-0.435853 0.297269,-0.289166 0.448064,-0.637015 0.448064,-1.047718 0,-0.402324 -0.150782,-0.745976 -0.448064,-1.035145 -0.297268,-0.284985 -0.65486,-0.427471 -1.077071,-0.427471 -0.417909,0 -0.775494,0.142493 -1.068461,0.427471 -0.301568,0.289166 -0.448062,0.632821 -0.448062,1.035145 z m 1.146005,3.260501 c 0,-0.100582 0.03446,-0.184405 0.107698,-0.251437 0.07324,-0.06703 0.159414,-0.100582 0.258482,-0.100582 0.103399,0 0.19387,0.03355 0.262813,0.100582 0.06891,0.06703 0.103399,0.150855 0.103399,0.251437 v 0.833982 c 0,0.10058 -0.03449,0.188586 -0.107698,0.259831 -0.07324,0.07124 -0.159414,0.104763 -0.258481,0.104763 -0.0991,0 -0.189571,-0.03352 -0.258482,-0.104763 -0.07324,-0.07124 -0.107731,-0.159251 -0.107731,-0.259831 z m 0,-6.495857 v -0.854939 c 0,-0.09637 0.03446,-0.180222 0.107698,-0.251437 0.07324,-0.07124 0.159414,-0.108975 0.262813,-0.108975 0.1034,0 0.185272,0.03355 0.258482,0.104794 0.07324,0.07124 0.107698,0.155069 0.107698,0.251436 v 0.85913 c 0,0.09637 -0.03446,0.176009 -0.107698,0.243074 -0.07324,0.06703 -0.159414,0.09637 -0.258482,0.09637 -0.09907,0 -0.18957,-0.03352 -0.258481,-0.09637 -0.06891,-0.06288 -0.11203,-0.146674 -0.11203,-0.243074 z m 2.378183,5.523572 c 0,-0.09637 0.0345,-0.176009 0.0991,-0.234679 0.0646,-0.06703 0.14648,-0.09637 0.24125,-0.09637 0.1034,0 0.18957,0.03352 0.25849,0.09637 l 0.62901,0.599295 c 0.0689,0.07124 0.1034,0.159251 0.1034,0.25565 0,0.0964 -0.0345,0.180222 -0.1034,0.247255 -0.17234,0.129916 -0.34466,0.129916 -0.51699,0 l -0.61178,-0.595103 c -0.0646,-0.07543 -0.0991,-0.163432 -0.0991,-0.272409 z m 0,-4.576436 c 0,-0.104762 0.0345,-0.188584 0.0991,-0.247255 l 0.61178,-0.616059 c 0.0732,-0.06703 0.15942,-0.100581 0.25418,-0.100581 0.1034,0 0.18958,0.03355 0.25849,0.104763 0.0732,0.07124 0.10773,0.155069 0.10773,0.251468 0,0.104763 -0.0345,0.192768 -0.1034,0.259832 l -0.62901,0.599295 c -0.0775,0.06703 -0.16372,0.10058 -0.25849,0.10058 -0.0991,0 -0.17664,-0.03351 -0.24125,-0.10058 -0.0646,-0.06706 -0.0991,-0.150888 -0.0991,-0.251437 z m 0.97368,2.28822 c 0,-0.100581 0.0345,-0.184404 0.1034,-0.259831 0.0689,-0.06703 0.15078,-0.100582 0.24558,-0.100582 h 0.87028 c 0.0991,0 0.18524,0.03769 0.25848,0.108977 0.0732,0.07124 0.112,0.155069 0.112,0.251436 0,0.09637 -0.0388,0.180222 -0.112,0.251436 -0.0732,0.07124 -0.15941,0.104763 -0.25848,0.104763 h -0.87029 c -0.0991,0 -0.18527,-0.03352 -0.24988,-0.104763 -0.0647,-0.07124 -0.0991,-0.150855 -0.0991,-0.251436 z"
       id="path1-3"
       style="stroke-width:0.424916" /></g></svg>
